<svg width="150" height="150" viewBox="0 0 150 150" fill="none" xmlns="http://www.w3.org/2000/svg">
<rect width="150" height="150" fill="white"/>
<path d="M70.0147 65.5448C69.013 59.1462 69.3159 52.4451 70.8309 46.1296C71.1152 44.9442 71.2867 41.5814 72.5977 41.0633" stroke="#0FA958" stroke-width="4.5" stroke-linecap="round" stroke-linejoin="round"/>
<path d="M66.7524 42.3167C62.4714 40.8032 57.5551 41.5365 53.5298 39.6402C51.0107 38.4534 47.2682 37.4196 49.5842 34.5888C54.1787 28.9728 61.8131 28.539 68.5341 29.2364C70.8822 29.4801 77.0189 30.8734 76.7135 34.3641" stroke="#0FA958" stroke-width="4.5" stroke-linecap="round" stroke-linejoin="round"/>
<path d="M75.0934 37.752C78.0581 32.6054 86.5175 32.0348 91.8659 31.7924C93.9142 31.6996 101.621 32.547 100.487 36.64C99.3969 40.5714 91.9141 42.3762 88.521 42.8486C85.9417 43.2077 82.9347 43.7325 80.3259 43.5042" stroke="#0FA958" stroke-width="4.5" stroke-linecap="round" stroke-linejoin="round"/>
<path d="M29.8145 86.2941C32.9606 82.4577 36.3062 78.7069 39.9865 75.3695C41.4062 74.0821 43.5691 71.0667 45.5716 72.3285C48.9719 74.4711 51.5229 76.8692 54.0976 79.9376C55.2543 81.3161 57.3185 82.9854 57.744 84.7667" stroke="#545454" stroke-width="4.5" stroke-linecap="round" stroke-linejoin="round"/>
<path d="M94.7919 84.9196C95.6542 80.17 100.852 76.3386 104.514 73.5389C105.4 72.8616 106.174 71.9592 107.037 71.3086C107.937 70.6308 110.257 74.1936 110.595 74.6347C113.558 78.5096 117.247 83.1861 118.797 87.9022" stroke="#545454" stroke-width="4.5" stroke-linecap="round" stroke-linejoin="round"/>
<path d="M64.7773 105.236C73.5189 104.611 81.4992 100.637 89.9976 98.8148C91.7515 98.4387 88.5292 101.381 88.0455 102.076C85.5957 105.593 83.7365 109.457 81.2115 112.949C80.0104 114.61 78.7042 116.226 77.7269 118.037C77.64 118.198 77.3457 119.258 77.1128 119.454C76.2528 120.175 73.1199 118.402 72.4788 118.068C66.5489 114.978 60.4833 111.826 54.7997 108.334" stroke="#545454" stroke-width="4.5" stroke-linecap="round" stroke-linejoin="round"/>
</svg>
